<?xml version="1.0" encoding="utf-8"?>
<!-- Svg Vector Icons : http://www.onlinewebfonts.com/icon -->
<!DOCTYPE svg PUBLIC "-//W3C//DTD SVG 1.1//EN" "http://www.w3.org/Graphics/SVG/1.1/DTD/svg11.dtd">
<svg version="1.1" xmlns="http://www.w3.org/2000/svg" xmlns:xlink="http://www.w3.org/1999/xlink" x="0px" y="0px" viewBox="0 0 256 256" enable-background="new 0 0 256 256" xml:space="preserve">
<metadata> Svg Vector Icons : http://www.onlinewebfonts.com/icon </metadata>
<g><g><g><path fill="#000000" d="M48.3,13c-3,1.4-5.5,4.2-6.4,7.3c-0.9,3-0.9,3.8,0,6.7c1.8,6,8.4,9.7,14.4,8l2.1-0.6l7.5,7.5l7.6,7.6L70.1,53C60.8,62.8,53.9,76.2,51,89.9c-1.7,7.8-1.9,14.2-1.9,52.9v37.4l-1.1,2.7c-2,4.9-4.3,7.2-18.2,18.2c-15.6,12.3-16.8,13.4-18.4,16.8c-1.1,2.2-1.2,3.1-1.2,6.5c0,3.5,0.2,4.3,1.5,7c1.7,3.4,4,5.7,7.4,7.3c2.7,1.3,8.2,1.7,11.2,0.7c1.2-0.4,10.8-5.9,21.4-12.3c10.6-6.4,19.4-11.6,19.4-11.5c0.1,0.1-1,2.5-2.4,5.4c-3.3,6.9-4.1,9.6-3.7,13.3c0.3,3.3,1.4,6.1,3.3,8.3l1.3,1.5h10.8H91l1.5-1.8c0.9-0.9,5.1-7.3,9.4-14.1c7-11.1,7.9-12.2,8.1-11c0.1,0.7,0.7,4.9,1.3,9.4c1.3,9.7,1.9,12.1,4.2,15l1.7,2.3H128h10.8l1.7-2.3c2.2-2.9,2.9-5.3,4.1-14.8c0.6-4.3,1.2-8.5,1.3-9.4c0.3-1.5,0.6-1.1,8.1,10.9c4.3,6.8,8.5,13.2,9.4,14.1l1.5,1.8h10.8h10.8l1.2-1.5c2.4-3.1,3.2-5.8,3.3-10c0-3.9,0-4-3.1-10.6c-1.7-3.6-3.1-6.7-3-6.7c0.1,0,8.9,5.3,19.7,11.8c10.8,6.6,20.5,12.1,21.6,12.5c1.2,0.4,3.4,0.5,5.4,0.4c5.9-0.4,10.3-3.3,12.9-8.6c1.3-2.7,1.5-3.5,1.5-7c0-3.3-0.2-4.3-1.2-6.5c-1.6-3.3-2.4-4-17.9-16.3c-13.6-10.9-16.4-13.5-18.4-17.8l-1.2-2.5l-0.3-41.3c-0.3-44.1-0.3-43.8-2.7-53.4c-3.3-12.9-11-26.6-19.6-34.8c-0.9-0.9-1.7-1.8-1.7-2.1c0-0.2,3.3-3.8,7.3-7.8l7.3-7.3l2.1,0.6c6,1.7,12.6-1.9,14.3-7.9c0.9-3,0.9-3.8,0-6.8c-1.4-4.8-6.2-8.4-11.3-8.4c-4.6,0-9.1,3-10.9,7.3c-0.8,1.9-0.9,6.4-0.2,8.3c0.5,1.2,0.2,1.6-9,10.8c-5.4,5.4-9.5,9.9-9.5,10.4c-0.1,2.2,0.4,3,4.6,7.3c11.2,11.5,17.2,23,20.2,38.8c0.7,3.6,0.8,9.1,1,46l0.3,41.8l1,2.5c1.2,3,3.2,6.3,5.6,9.2c0.9,1.1,8.3,7.3,16.3,13.8c15.9,12.7,16.3,13.2,15.9,17c-0.5,4.4-4,7.4-8.4,7c-2.1-0.2-4.8-1.7-27.2-15.3c-13.7-8.3-25.4-15.4-26-15.6c-2.2-1-5.3,1-5.3,3.4c0,0.7,2.6,6.7,5.8,13.4c3.2,6.7,6,13,6.1,14.1c0.3,2.5-1.2,5.7-3.4,7.1c-2.4,1.4-5.7,1.3-8.5-0.4c-1.8-1.2-3.1-2.9-10.5-14.5C147,202.4,146.3,201.5,145,201c-1.7-0.6-3.5,0-4.3,1.3c-0.5,0.6-1.5,6.8-3,16.7c-1.3,9.6-2.5,16.2-3,17.1c-1.3,2.5-3.4,3.6-6.8,3.6c-2.6,0-3.3-0.2-4.6-1.2c-0.9-0.6-1.9-2-2.4-3c-0.4-1-1.6-8.1-2.7-15.8c-1.1-7.8-2.1-14.9-2.4-15.8c-0.7-2.9-3.8-4.1-5.9-2.4c-0.6,0.5-6,8.6-12,18.2c-12.3,19.4-12.7,19.9-17.5,20.2c-4.8,0.3-7.7-2.2-7.7-6.8c0-2.3,0.5-3.6,5.7-14.5c3.1-6.6,5.8-12.6,6-13.2c0.3-1.8-1.8-4.1-3.7-4.1c-1.1,0-7.7,3.7-26.8,15.3c-22.9,13.8-25.6,15.3-27.8,15.5c-4.3,0.4-7.9-2.6-8.4-7c-0.5-3.8,0-4.4,14.5-15.8c7.3-5.8,14.3-11.5,15.6-12.6c2.7-2.5,6.3-7.8,7.8-11.5l1.1-2.7l0.3-41.8c0.2-36.9,0.3-42.3,1.1-46c3-15.8,8.9-27.1,20.5-39.1c3.7-3.8,4.8-5.2,4.8-6.2c0-1.1-1.8-3-9.7-11c-9.4-9.4-9.7-9.8-9.2-11c0.2-0.7,0.5-2.4,0.5-3.9C64.7,14.9,56,9.4,48.3,13z M55.7,20.9c1.9,1.8,1.5,4.8-0.7,6c-1.8,1-3,0.9-4.4-0.4c-1-0.8-1.3-1.5-1.3-2.8C49.3,20.2,53.4,18.5,55.7,20.9z M205.4,20.8c2.7,2.3,0.9,6.7-2.6,6.7c-2,0-3.6-1.8-3.6-3.9C199.1,20.2,202.8,18.5,205.4,20.8z"/><path fill="#000000" d="M119.1,28.1c-8.5,1-18.3,3.9-25.8,7.6c-5.4,2.7-6.4,3.6-6.4,5.7c0,2,0.8,3,2.5,3.7c1.2,0.4,1.9,0.2,7.1-2.3c11.5-5.4,19.2-7.2,31.5-7.2c12.3,0,20.1,1.8,31.5,7.2c5.6,2.7,6,2.8,7.3,2.2c1.8-0.7,2.9-3.1,2.3-4.7c-0.6-1.6-1.7-2.4-6.3-4.7C149.7,29.2,133.6,26.4,119.1,28.1z"/><path fill="#000000" d="M126.2,67.3c-1.3,0.6-2.4,3-2.4,5.6v2l-4,1.1c-3.7,1-4.1,1-4.5,0.3c-2.6-4.2-4.1-5.2-6.6-4.1c-2.7,1.1-3,3.3-1.2,6.7l1.3,2.3l-3,3l-3,3l-2.1-1.2c-2.6-1.5-4.7-1.6-6.2,0c-2.2,2.1-1.3,4.8,2.3,6.9l2,1.2l-0.9,2.9c-0.6,1.9-1,4.7-1.2,8c-0.3,6.2,0.5,9.9,3.1,15.4c1.5,3.1,2.7,4.7,5.9,7.9c6.5,6.5,13.1,9.3,22,9.4c5.7,0,8.5-0.6,14.1-3.3c3.7-1.8,5-2.7,8.4-6.1c6.7-6.7,9.5-13.8,9.1-23.3c-0.1-3.3-0.6-6.1-1.2-8l-0.9-2.9l2-1.2c3.6-2.1,4.4-4.8,2.3-6.9c-1.5-1.5-3.6-1.5-6.2,0l-2.1,1.2l-3-3l-3-3l1.3-2.3c1.9-3.4,1.5-5.6-1.2-6.7c-2.5-1.1-4-0.2-6.6,4.1c-0.4,0.7-0.8,0.7-4.5-0.3l-4.1-1.1v-2C132.2,68.3,129.7,65.9,126.2,67.3z M131.7,83c4.7,0.7,9.9,3.6,13.2,7.1c4.6,4.9,6.7,9.9,6.7,16.3c0,6.3-2,11.3-6.6,16.2c-4.4,4.7-10.3,7.2-16.8,7.2c-6.7,0-12.1-2.2-16.9-7c-11.4-11.4-8.2-30.3,6.3-37.5C122.6,82.8,126.4,82.2,131.7,83z"/><path fill="#000000" d="M125.5,98.9c-5.1,1.8-7,7.8-3.8,12c1.6,2.1,3.5,3,6.2,3.1c4.1,0,7.3-2.8,7.8-6.7c0.5-4-1.9-7.5-5.7-8.5C127.8,98.1,127.7,98.1,125.5,98.9z"/><path fill="#000000" d="M82,154.8c-1.5,1.4-1.6,4-0.2,5.4c0.6,0.6,3.3,2.1,6.1,3.4c20,9.6,41,11.9,60.7,7c9.3-2.4,23-8,25.4-10.4c2.1-2.1,0.5-6.5-2.5-6.5c-0.6,0-3.5,1.1-6.4,2.5c-6.5,3.1-14.4,5.9-21.7,7.5c-5.2,1.2-6.4,1.2-15.6,1.2s-10.4-0.1-15.6-1.2c-7.3-1.7-15.2-4.4-21.7-7.5c-2.9-1.4-5.7-2.5-6.4-2.5S82.6,154.1,82,154.8z"/></g></g></g>
</svg>